<?xml version="1.0" encoding="UTF-8" standalone="no"?>
<svg
   xmlns:dc="http://purl.org/dc/elements/1.1/"
   xmlns:cc="http://creativecommons.org/ns#"
   xmlns:rdf="http://www.w3.org/1999/02/22-rdf-syntax-ns#"
   xmlns:svg="http://www.w3.org/2000/svg"
   xmlns="http://www.w3.org/2000/svg"
   id="svg2816"
   height="584.95599"
   width="800"
   version="1.1">
  <metadata
     id="metadata2682">
    <rdf:RDF>
      <cc:Work
         rdf:about="">
        <dc:format>image/svg+xml</dc:format>
        <dc:type
           rdf:resource="http://purl.org/dc/dcmitype/StillImage" />
        <dc:title></dc:title>
      </cc:Work>
    </rdf:RDF>
  </metadata>
  <defs
     id="defs2868" />
  <g
     id="g3816"
     transform="matrix(1.0001879,0,0,1.0001879,396.72952,29.610672)">
    <path
       style="fill:#141414;fill-opacity:1;fill-rule:evenodd;stroke-width:0;stroke-linecap:butt;stroke-linejoin:miter;stroke-miterlimit:2.61310005"
       id="path2852"
       d="m -396.65499,266.35658 799.84972,0 0,1.785 -799.84972,0 z" />
    <path
       style="fill:#141414;fill-opacity:1;fill-rule:evenodd;stroke-width:0;stroke-linecap:butt;stroke-linejoin:miter;stroke-miterlimit:2.61310005"
       id="path2856"
       d="m -5.6386559,-29.605109 1.785,0 0,584.846079 -1.785,0 z" />
    <path
       style="fill:#141414;fill-opacity:1;fill-rule:evenodd;stroke-width:0;stroke-linecap:butt;stroke-linejoin:miter;stroke-miterlimit:2.61310005"
       id="path2836"
       transform="matrix(0.99981214,0,0,0.99981214,-396.65499,-29.605109)"
       d="m 294.8125,224.25 0,22.15625 -12.34375,0 -2.3125,0 -32.84375,0 0,6.9375 c -6.07917,-6.07685 -13.19055,-9.65625 -20.15625,-9.65625 -29.4371,0 -50.8125,23.85919 -50.8125,53.3125 0,29.43941 21.3754,53.3125 50.8125,53.3125 6.9657,0 14.07708,-3.57939 20.15625,-9.65625 l 0,8.15625 35.15625,0 0,-71.8125 12.34375,0 0,71.8125 37.15625,0 0,-71.8125 14.65625,0 0,-30.59375 -14.65625,0 0,-22.15625 -37.15625,0 z m -65.5,55.1875 c 9.69796,0 17.53125,7.86361 17.53125,17.5625 0,9.68036 -7.83329,17.53125 -17.53125,17.53125 -9.67944,0 -17.5625,-7.85089 -17.5625,-17.53125 0,-9.69889 7.88306,-17.5625 17.5625,-17.5625 z" />
    <path
       style="fill:#141414;fill-opacity:1;fill-rule:evenodd;stroke-width:0;stroke-linecap:butt;stroke-linejoin:miter;stroke-miterlimit:2.61310005"
       id="path2840"
       d="m -227.37916,319.14445 0,-71.81572 14.65257,0 0,-30.57309 -14.65257,0 0,-22.15877 -37.15542,0 0,22.15877 -14.63451,0 0,30.57309 14.63451,0 0,71.81572 z" />
    <path
       style="fill:#141414;fill-opacity:1;fill-rule:evenodd;stroke-width:0;stroke-linecap:butt;stroke-linejoin:miter;stroke-miterlimit:2.61310005"
       id="path2844"
       transform="matrix(0.99981214,0,0,0.99981214,-396.65499,-29.605109)"
       d="m 504,224.25 0,22.15625 -11.96875,0 c -6.33161,0 -11.18412,3.86282 -13.5,10.25 l 0,-10.21875 -35.125,0 0,102.40625 35.125,0 0,-62.21875 c 0,-9.62478 13.5,-9.625 13.5,-9.625 L 504,277 l 0,71.8125 37.15625,0 0,-71.8125 14.65625,0 0,-30.59375 -14.65625,0 0,-22.15625 -37.15625,0 z" />
    <path
       style="fill:#141414;fill-opacity:1;fill-rule:evenodd;stroke-width:0;stroke-linecap:butt;stroke-linejoin:miter;stroke-miterlimit:2.61310005"
       id="path2864"
       d="m -22.915068,267.33414 c 0,-9.69707 7.851197,-17.54641 17.5468751,-17.54641 9.6780803,0 17.5468749,7.84934 17.5468749,17.54641 0,9.67854 -7.8687946,17.54641 -17.5468749,17.54641 -9.6956781,0 -17.5468751,-7.86787 -17.5468751,-17.54641 z m -35.762449,0 c 0,-29.44778 23.877754,-53.31072 53.3093241,-53.31072 29.4297179,0 53.3111769,23.86294 53.3111769,53.31072 0,29.43388 -23.881459,53.31071 -53.3111769,53.31071 -29.4315701,0 -53.3093241,-23.87683 -53.3093241,-53.31071 z" />
    <path
       style="fill:none;stroke:#141414;stroke-width:0.88216388;stroke-miterlimit:4;stroke-opacity:1;stroke-dasharray:none"
       id="path3003"
       transform="matrix(1.9729658,0,0,2.0751929,1227.3013,22.012854)"
       d="m -542.50309,108.37326 a 82.576271,78.508476 0 1 1 -0.0223,-0.16395" />
    <path
       style="fill:none;stroke:#141414;stroke-width:0.52774793;stroke-miterlimit:4;stroke-opacity:1;stroke-dasharray:none"
       id="path3003-1"
       transform="matrix(3.2979363,0,0,3.4688149,2054.6219,-142.95423)"
       d="m -542.50309,108.37326 a 82.576271,78.508476 0 1 1 -0.0223,-0.16395" />
  </g>
</svg>
