<?xml version="1.0" encoding="utf-8"?>
<!-- Generator: Adobe Illustrator 16.0.4, SVG Export Plug-In . SVG Version: 6.00 Build 0)  -->
<!DOCTYPE svg PUBLIC "-//W3C//DTD SVG 1.1//EN" "http://www.w3.org/Graphics/SVG/1.1/DTD/svg11.dtd">
<svg version="1.1" xmlns="http://www.w3.org/2000/svg" x="0px" y="0px" width="2880px" height="1800px" viewBox="0 0 2880 1800" enable-background="new 0 0 2880 1800" xml:space="preserve">
<path fill="#EF7D23" d="M2785.818,375.958c10.896-8.497,31.729-7.056,51.166-7.056c14.336,0,28.68,0,43.008,0 c0-10.476,0-20.936,0-31.403c-18.95,0-37.922,0-56.881,0c-20.421,0-40.4-0.572-54.374,5.469c-20.327,8.78-30.187,29.158-29.81,58.7 c-0.072,0-0.145,0-0.218,0c-0.681-6.716-2.876-13.207-5.013-18.654c-9.902-25.282-26.325-38.054-55.512-44.153 c-13.018-2.709-30.042-1.361-45.037-1.361c-19.125,0-38.234,0-57.345,0c-1.746-3.246-3.484-6.513-5.237-9.772 c-4.875-8.295-10.171-16.387-15.923-23.892c-16.053-20.979-36.575-37.865-59.829-51.658c-14.981-8.889-32.309-14.865-50.971-20.023 c-30.606-8.454-74.194-6.107-102.381,2.506c-60.634,18.538-104.33,57.787-128.092,113.088c-5.57,12.967-9.388,27.071-12.742,42.313 c-6.846,31.056-2.05,70.044,5.911,95.558c19.726,63.133,62.634,104.62,122.188,128.091c35.938,14.17,91.726,16.024,130.127,2.499 c51.324-18.052,93.854-52.657,116.029-99.643c22.906,0,45.819,0,68.718,0c15.329,0,31.354,0.681,43.683-2.507 c25.818-6.672,47.362-28.035,51.188-56.432c0.079,19.566,0.159,39.133,0.238,58.706c12.656,0,25.333,0,37.996,0 c0-23.435,0-46.877,0-70.312c29.875,0,59.749,0,89.632,0c0.072-10.461,0.166-20.936,0.238-31.389c-29.954,0-59.916,0-89.871,0 C2777.343,399.03,2776.713,383.05,2785.818,375.958z M2700.272,439.656c-1.761,11.699-2.166,21.225-7.056,29.346 c-12.424,20.609-46.718,16.125-79.179,15.923c0-38.597,0-77.201,0-115.806c9.019-0.087,18.053-0.145,27.086-0.225 c15.191,0,31.07-0.651,40.728,4.999c10.822,6.339,15.017,16.886,17.74,31.41c0.305,4.311,0.608,8.649,0.906,12.96 C2701.438,424.545,2701.148,433.687,2700.272,439.656z"/>
<path fill="#FFFFFF" d="M2424.285,516.343c50.194,0,100.403,0,150.605,0c0-10.243,0-20.479,0-30.723c-37.395,0-74.781,0-112.14,0 c-0.102-13.228,0.21-24.579,5.883-31.853c11.815-15.097,48.376-5.44,70.543-10.236c22.479-4.868,34.976-17.277,39.814-39.813 c1.456-6.78,1.282-16.539,0-23.21c-9.041-47.116-42.277-43.233-96.471-43.233c-19.022,0.079-38.067,0.145-57.105,0.225 c0.079,10.555,0.167,21.095,0.231,31.628c24.037,0,48.087,0,72.116,0c14.241,0,28.39-0.638,36.641,5.237 c5.513,3.919,9.309,15.764,5.694,25.028c-5.404,13.852-25.369,12.055-44.596,12.055c-3.94,0-7.881,0-11.829,0 c-8.81,1.384-16.8,1.123-24.108,3.404C2420.185,427.16,2424.205,465.713,2424.285,516.343z"/>
<g>
	<path fill="#1E1E1C" d="M0,337.839h135.328V537.72c31.113-44.327,70.775-64.553,126.772-64.553 c86.336,0,132.996,48.218,132.996,140.001v283.877H259.768V689.384c0-76.216-3.115-112.771-56.772-112.771 c-49,0-68.443,31.89-68.443,99.55v220.882H0V337.839z"/>
	<path fill="#1E1E1C" d="M843.067,767.156c-24.108,90.219-97.999,142.334-203.771,142.334 c-127.548,0-207.654-82.446-207.654-216.992c0-138.442,81.664-222.438,207.654-222.438c129.887,0,210.769,84.771,210.769,228.662 c0,7.779,0,16.335-0.775,24.108H570.086c0,58.33,25.666,89.436,73.883,89.436c36.555,0,59.888-15.553,69.218-45.108 L843.067,767.156L843.067,767.156z M720.191,646.606c-0.774-53.664-30.331-84.771-76.998-84.771 c-43.551,0-71.55,29.556-76.99,84.771H720.191z"/>
	<path fill="#1E1E1C" d="M1280.15,897.045H1147.93v-56.773c-32.663,45.885-72.332,66.893-125.215,66.893 c-91.001,0-137.668-46.666-137.668-139.225V484.056h135.328V715.05c0,61.444,10.889,89.437,56.772,89.437 c48.999,0,67.661-31.89,67.661-99.55V484.056h135.327v412.989H1280.15z"/>
	<path fill="#1E1E1C" d="M1316.697,484.056h55.229v-116.66h135.321v116.66h69.225v81.663h-69.225v178.88 c0,49.774,7.779,67.667,50.557,67.667c4.672,0,10.895,0,17.117-0.774v86.336c-27.223,5.44-54.447,8.555-80.888,8.555 c-107.329,0-122.107-52.114-122.107-180.438V565.719h-55.229V484.056z"/>
	<path fill="#1E1E1C" d="M2011.209,767.156c-24.109,90.219-97.999,142.334-203.764,142.334 c-127.548,0-207.668-82.446-207.668-216.992c0-138.442,81.67-222.438,207.668-222.438c129.88,0,210.768,84.771,210.768,228.662 c0,7.779,0,16.335-0.781,24.108H1738.22c0,58.33,25.659,89.436,73.884,89.436c36.554,0,59.887-15.553,69.225-45.108 L2011.209,767.156L2011.209,767.156z M1888.334,646.606c-0.783-53.664-30.332-84.771-77.006-84.771 c-43.552,0-71.543,29.556-76.983,84.771H1888.334z"/>
</g>
<g>
	<path fill="#1E1E1C" d="M514.233,1367.85c1.601,83.872,59.901,136.581,149.36,136.581c91.059,0,143.768-41.531,143.768-104.635 c0-68.689-53.506-78.273-157.344-103.033c-126.997-30.354-192.498-58.309-192.498-158.952c0-100.628,79.076-170.129,205.27-170.129 c126.998,0,204.474,69.501,205.271,183.712h-74.274c-5.592-76.672-54.316-119.014-135.784-119.014 c-78.273,0-126.2,37.539-126.2,91.855c0,73.485,53.52,78.273,174.12,107.025c55.918,13.583,99.839,23.167,131.793,50.325 c30.353,25.55,47.123,63.104,47.123,109.423c0,109.423-83.068,181.307-220.446,181.307c-138.979,0-219.643-72.681-225.243-204.474 h75.086V1367.85z"/>
	<path fill="#1E1E1C" d="M933.554,982.866h78.273v235.623h297.931V982.866h78.272v574.287h-78.272v-269.171h-297.931v269.171 h-78.273V982.866z"/>
	<path fill="#1E1E1C" d="M1715.531,967.689c168.527,0,271.568,111.031,271.568,302.719c0,191.694-103.033,302.719-271.568,302.719 s-272.365-111.024-272.365-302.719C1443.166,1078.713,1547.004,967.689,1715.531,967.689z M1715.531,1505.234 c118.217,0,190.898-85.459,190.898-234.826c0-149.36-72.682-234.826-190.898-234.826c-118.21,0-191.688,85.466-191.688,234.826 C1523.844,1419.775,1597.328,1505.234,1715.531,1505.234z"/>
	<path fill="#1E1E1C" d="M1991.041,982.866h75.89l117.406,459.265l121.397-459.265h81.468l125.403,456.069l119.015-456.069h74.281 l-152.562,574.287h-76.673l-130.981-473.645l-125.403,473.645H2140.4L1991.041,982.866z"/>
</g>
</svg>